# xmcd
#
# Track frame offsets:
#	150
#	14303
#	53861
#	84174
#	96499
#	110436
#	123255
#	134795
#	156627
#	179872
#	193954
#	210089
#	226605
#	233684
#	249047
#
# Disc length: 3457 seconds
#
# Revision: 1
# Processed by: cddbd v1.5.2PL0 Copyright (c) Steve Scherf et al.
# Submitted via: audiograbber 1.83.01
#
DISCID=c70d7f0f
DTITLE=Jazzlounge - Jazzlounge 03
DYEAR=2008
DGENRE=Jazz
TTITLE0=Tears dry on their Own - Amy Winehouse
TTITLE1=Papa was a Rollin' Stone - The Temptations
TTITLE2=Time After TIme - Stan Getz
TTITLE3=Unforgettable - Dinah Washington
TTITLE4=C'est si bon - Louis Armstrong
TTITLE5=Sweet Lorraine - Marvin Gaye
TTITLE6=Get a Kick out of you - Nana Mouskouri
TTITLE7=Never can say goodbye - Lee Ritenour
TTITLE8=Return to Paradise - Shirley Horn
TTITLE9=Yesterday - Count Basie
TTITLE10=Let's do it (Let's fall in Love) - Armstrong - Fitzgerald
TTITLE11=At Last - Rawls - Reeve
TTITLE12=My kind of Love - Patti Page
TTITLE13=All of me - The Oscar Peterson Trio
TTITLE14=Nina Simone - I am gonna leave you
EXTD=YEAR: 2008
EXTT0=
EXTT1=
EXTT2=
EXTT3=
EXTT4=
EXTT5=
EXTT6=
EXTT7=
EXTT8=
EXTT9=
EXTT10=
EXTT11=
EXTT12=
EXTT13=
EXTT14=
PLAYORDER=
